<?xml version="1.0" encoding="UTF-8"?>
<svg version="1.1" xmlns="http://www.w3.org/2000/svg" width="400" height="400">
<path d="M0 0 C132 0 264 0 400 0 C400 132 400 264 400 400 C268 400 136 400 0 400 C0 268 0 136 0 0 Z " fill="#80ACEA" transform="translate(0,0)"/>
<path d="M0 0 C72.6 0 145.2 0 220 0 C220 52.8 220 105.6 220 160 C187 160 154 160 120 160 C120 193 120 226 120 260 C67.2 260 14.4 260 -40 260 C-40 187.4 -40 114.8 -40 40 C-26.8 40 -13.6 40 0 40 C0 26.8 0 13.6 0 0 Z " fill="#F4F5F1" transform="translate(110,70)"/>
<path d="M0 0 C13.2 0 26.4 0 40 0 C40 39.6 40 79.2 40 120 C79.6 120 119.2 120 160 120 C160 153 160 186 160 220 C107.2 220 54.4 220 0 220 C0 147.4 0 74.8 0 0 Z " fill="#F5F5F1" transform="translate(70,110)"/>
<path d="M0 0 C39.6 0 79.2 0 120 0 C120 39.6 120 79.2 120 120 C80.4 120 40.8 120 0 120 C0 80.4 0 40.8 0 0 Z " fill="#80ABEA" transform="translate(110,110)"/>
<path d="M0 0 C39.6 0 79.2 0 120 0 C120 39.6 120 79.2 120 120 C80.4 120 40.8 120 0 120 C0 80.4 0 40.8 0 0 Z M1 2 C0.90431424 3.48016394 0.87811732 4.96488273 0.87974548 6.44813538 C0.87836799 7.40671731 0.87699049 8.36529924 0.87557125 9.35292912 C0.87916936 10.41732432 0.88276747 11.48171953 0.88647461 12.57836914 C0.88635407 13.70847884 0.88623354 14.83858854 0.88610935 16.00294399 C0.8868589 19.68036774 0.89448903 23.35774151 0.90234375 27.03515625 C0.90381304 29.29781062 0.90483383 31.56046534 0.90539551 33.82312012 C0.9106499 42.23625191 0.92461096 50.64937644 0.9375 59.0625 C0.958125 77.851875 0.97875 96.64125 1 116 C38.95 116 76.9 116 116 116 C116 78.05 116 40.1 116 1 C97.210625 0.979375 78.42125 0.95875 59.0625 0.9375 C50.14875366 0.92384399 50.14875366 0.92384399 41.05493164 0.90991211 C35.74864989 0.90656859 35.74864989 0.90656859 30.44236755 0.90455627 C28.07074293 0.90301622 25.69911911 0.89949006 23.32749939 0.89442444 C19.74444204 0.88715093 16.16143272 0.88609245 12.57836914 0.88647461 C11.51397393 0.8828765 10.44957872 0.87927839 9.35292912 0.87557125 C8.39434718 0.87694875 7.43576525 0.87832624 6.44813538 0.87974548 C5.60838197 0.87882369 4.76862856 0.8779019 3.90342808 0.87695217 C1.98957809 0.79041594 1.98957809 0.79041594 1 2 Z " fill="#86AEDF" transform="translate(110,110)"/>
<path d="M0 0 C13.2 0 26.4 0 40 0 C40 39.6 40 79.2 40 120 C79.6 120 119.2 120 160 120 C160 153 160 186 160 220 C107.2 220 54.4 220 0 220 C0 147.4 0 74.8 0 0 Z M1 2 C0.89990252 4.7496213 0.86560453 7.474196 0.87301636 10.22433472 C0.87145637 11.09695265 0.86989638 11.96957058 0.86828911 12.86863148 C0.86427518 15.81592084 0.8674703 18.76315941 0.87060547 21.71044922 C0.86925158 23.81407705 0.86747172 25.91770465 0.86529541 28.02133179 C0.86071901 33.75270206 0.86251163 39.48405441 0.8656745 45.21542501 C0.8681977 51.20116317 0.86586061 57.18689973 0.86428833 63.17263794 C0.86246624 73.22886431 0.86487369 83.28508334 0.86962891 93.34130859 C0.87506865 104.97979059 0.87331112 116.61825507 0.8678025 128.25673664 C0.86326898 138.23294344 0.86262209 148.20914495 0.86524117 158.18535244 C0.866803 164.15072042 0.86700032 170.11608015 0.86370468 176.0814476 C0.86082261 181.69066058 0.8628079 187.29985091 0.86859894 192.90906143 C0.86992485 194.97187513 0.86953526 197.03469071 0.86733627 199.09750366 C0.86461812 201.90559445 0.86801419 204.71361192 0.87301636 207.521698 C0.87078564 208.34494029 0.86855491 209.16818258 0.86625659 210.01637161 C0.87756546 213.27233659 0.96287211 215.88861632 2 219 C21.73197454 219.0467123 41.46393787 219.08198507 61.19595623 219.10362434 C70.35778845 219.1139387 79.51958631 219.1280021 88.68139648 219.15087891 C96.66644734 219.17080787 104.65147331 219.18371528 112.63654834 219.18817699 C116.86492003 219.1907852 121.09322055 219.19691899 125.32156944 219.21146011 C129.30155353 219.22503621 133.28143714 219.22922258 137.26144218 219.22621536 C138.72193701 219.22676551 140.1824352 219.23074282 141.64291 219.23841095 C143.63798846 219.24837204 145.63312084 219.24477492 147.6282196 219.24050903 C149.30265656 219.24327441 149.30265656 219.24327441 151.01092052 219.24609566 C154.05370323 218.99557853 156.24950578 218.28898851 159 217 C159.02312154 204.63081285 159.04091412 192.26163081 159.05181217 179.89242649 C159.05704141 174.14954938 159.0641398 168.40668699 159.07543945 162.66381836 C159.08626687 157.12660005 159.09227652 151.58939596 159.09487724 146.05216789 C159.09673176 143.93455723 159.10035286 141.81694738 159.10573006 139.69934273 C159.11293856 136.74428726 159.11399102 133.78929129 159.11352539 130.83422852 C159.11712067 129.94950363 159.12071594 129.06477875 159.12442017 128.15324402 C159.50447915 124.26468477 159.50447915 124.26468477 158 121 C156.47131068 120.90635658 154.93828808 120.88255622 153.40673828 120.88647461 C152.4139386 120.8865451 151.42113892 120.8866156 150.39825439 120.88668823 C149.30003357 120.89185455 148.20181274 120.89702087 147.0703125 120.90234375 C145.92085144 120.90380402 144.77139038 120.90526428 143.58709717 120.9067688 C141.08196588 120.91058537 138.57683733 120.91671291 136.07171631 120.92483521 C132.11437441 120.9375341 128.15706578 120.94409766 124.19970703 120.94897461 C115.79978977 120.96009321 107.39989915 120.979629 99 121 C89.27114046 121.02359392 79.54229695 121.04394909 69.81341553 121.05593872 C65.90179376 121.06245536 61.99021923 121.07496398 58.07861328 121.08764648 C55.69563845 121.09127695 53.31266317 121.09462894 50.9296875 121.09765625 C49.83146667 121.10282257 48.73324585 121.10798889 47.60174561 121.11331177 C46.60894592 121.11338226 45.61614624 121.11345276 44.59326172 121.11352539 C43.72530975 121.115746 42.85735779 121.11796661 41.96310425 121.12025452 C40 121 40 121 39 120 C38.90418178 118.46914161 38.87811892 116.93386244 38.87974548 115.40000916 C38.87837082 114.40576431 38.87699615 113.41151947 38.87557983 112.387146 C38.88097275 110.73745819 38.88097275 110.73745819 38.88647461 109.05444336 C38.88632858 107.90337601 38.88618256 106.75230865 38.8860321 105.56636047 C38.88673182 101.74083609 38.89452698 97.91535969 38.90234375 94.08984375 C38.90420772 91.44568407 38.90563172 88.80152404 38.90663147 86.15736389 C38.90974451 79.89584583 38.91795752 73.63434514 38.92798096 67.37283474 C38.93914295 60.24598463 38.94465276 53.1191337 38.94967639 45.99227703 C38.96014016 31.3281757 38.97773907 16.66408809 39 2 C35.89049471 0.44524736 32.5955297 0.85800476 29.18359375 0.8671875 C28.41193375 0.86623077 27.64027374 0.86527405 26.8452301 0.86428833 C25.21363239 0.86360754 23.58203197 0.8654548 21.95043945 0.86962891 C19.44411179 0.87498587 16.93796275 0.86967681 14.43164062 0.86328125 C12.84895794 0.86394191 11.26627536 0.86522281 9.68359375 0.8671875 C8.92944687 0.86516327 8.17529999 0.86313904 7.39830017 0.86105347 C3.90768165 0.55781704 3.90768165 0.55781704 1 2 Z " fill="#E8F4FE" transform="translate(70,110)"/>
<path d="M0 0 C72.6 0 145.2 0 220 0 C220 51.48 220 102.96 220 156 C219.67 156 219.34 156 219 156 C219 104.85 219 53.7 219 1 C147.39 1.33 75.78 1.66 2 2 C1.67 13.55 1.34 25.1 1 37 C1.66 37 2.32 37 3 37 C3 37.66 3 38.32 3 39 C41.61 38.67 80.22 38.34 120 38 C120 38.99 120 39.98 120 41 C80.4 40.67 40.8 40.34 0 40 C0 26.8 0 13.6 0 0 Z " fill="#E7F4FE" transform="translate(110,70)"/>
<path d="M0 0 C33 0 66 0 100 0 C100 0.33 100 0.66 100 1 C98.80174591 1.00586624 97.60349182 1.01173248 96.368927 1.01777649 C85.09684933 1.07489779 73.82496654 1.1476034 62.55308723 1.23571491 C56.75757349 1.28051316 50.96213159 1.31974824 45.16650391 1.34643555 C39.57726342 1.37237442 33.98829802 1.41270939 28.39922714 1.46318626 C26.26294237 1.47991893 24.12660995 1.49139317 21.99026871 1.49761391 C19.00640009 1.50718565 16.0232455 1.53516097 13.03955078 1.56762695 C12.14907043 1.56619186 11.25859009 1.56475677 10.34112549 1.5632782 C7.64146747 1.56954318 7.64146747 1.56954318 4 2 C1.98210556 5.02684167 1.74813399 5.6129168 1.7215271 9.0052948 C1.71036362 9.81717758 1.69920013 10.62906036 1.68769836 11.46554565 C1.68445808 12.79587326 1.68445808 12.79587326 1.68115234 14.15307617 C1.67110672 15.08985703 1.6610611 16.02663788 1.65071106 16.99180603 C1.6197884 20.09218729 1.60281864 23.19248184 1.5859375 26.29296875 C1.56723317 28.44103242 1.54766031 30.58908868 1.5272522 32.73713684 C1.47584744 38.39402916 1.43626636 44.05094532 1.39910889 49.70794678 C1.35912152 55.47918639 1.30800518 61.2503261 1.2578125 67.02148438 C1.16095442 78.34758616 1.07658127 89.67374424 1 101 C-2.90895237 101.92453137 -6.51146158 102.11134099 -10.52363586 102.08229065 C-11.84311722 102.07525116 -13.16259857 102.06821167 -14.52206421 102.06095886 C-15.97735682 102.04797791 -17.43264854 102.03489782 -18.88793945 102.02172852 C-20.42560037 102.0115805 -21.96326434 102.00188739 -23.50093079 101.99261475 C-27.66996545 101.96618614 -31.83892866 101.93339602 -36.00790811 101.89946485 C-40.36675296 101.86506988 -44.72563602 101.83652388 -49.08451843 101.80735779 C-57.3363056 101.75125462 -65.58804492 101.68989028 -73.83978003 101.62663645 C-83.23509425 101.5548726 -92.63044673 101.48897283 -102.02580702 101.42356598 C-121.35058785 101.28890298 -140.67530832 101.14687463 -160 101 C-160 100.67 -160 100.34 -160 100 C-107.2 100 -54.4 100 0 100 C0 67 0 34 0 0 Z " fill="#89A7D7" transform="translate(230,230)"/>
<path d="M0 0 C0.33 0 0.66 0 1 0 C1 13.2 1 26.4 1 40 C-11.87 40 -24.74 40 -38 40 C-38 39.67 -38 39.34 -38 39 C-27.11 39 -16.22 39 -5 39 C-5 38.01 -5 37.02 -5 36 C-4.34 36 -3.68 36 -3 36 C-3 35.34 -3 34.68 -3 34 C-2.01 34 -1.02 34 0 34 C0 22.78 0 11.56 0 0 Z " fill="#89AAD9" transform="translate(109,70)"/>
</svg>
