<svg xmlns="http://www.w3.org/2000/svg" viewBox="0 0 1360 1440" role="img" aria-labelledby="devin-title">
  <title id="devin-title">Devin</title>
  <path
    fill="#3f6cc6"
    d="M680 250c9 0 17 2 24 7l84 49c11 6 18 18 18 31v111c0 13-7 25-18 31l-84 50c-15 8-33 8-48-1l-47-28c-38-22-87 5-87 49v66c0 16-8 30-22 38l-82 48c-14 8-31 8-45-1l-82-48c-14-8-22-22-22-38V500c0-16 8-30 22-38l82-48c14-8 31-8 45 0l49 28c38 22 87-5 87-49v-56c0-16 9-31 23-39l79-45c7-2 15-3 24-3Z"
  />
  <path
    fill="#28c2a3"
    d="M963 414c8 0 16 2 23 6l83 48c14 8 22 23 22 39v108c0 16-9 31-23 39l-82 48c-14 8-32 8-46 0l-43-25c-41-24-92 6-92 53 0 46 50 76 91 54l44-25c14-8 31-8 45 0l83 48c14 8 22 23 22 39v108c0 16-9 31-23 39l-82 48c-14 8-32 8-46 0l-82-48c-14-8-22-23-22-39v-58c0-48-52-78-93-54l-40 23c-14 8-32 8-46 0l-82-48c-14-8-22-23-22-39V666c0-16 9-31 23-39l81-47c14-8 32-8 46 0l42 24c41 24 93-6 93-54v-43c0-16 9-31 23-39l82-48c6-4 14-6 22-6Z"
  />
  <path
    fill="#159bd7"
    d="M396 743c8 0 16 2 23 6l82 48c14 8 22 23 22 39v47c0 48 52 78 93 54l40-23c14-8 32-8 46 0l82 48c14 8 22 23 22 39v108c0 16-9 31-23 39l-81 47c-14 8-32 8-46 0l-81-47c-14-8-22-23-22-39v-56c0-48-52-78-93-54l-42 25c-14 8-31 8-45 0l-82-48c-14-8-22-23-22-39V835c0-16 9-31 23-39l82-48c6-3 14-5 22-5Z"
  />
</svg>
