<svg xmlns="http://www.w3.org/2000/svg" width="64" height="64" viewBox="0 0 100 100" fill="none">
  <mask id="a" width="100" height="100" x="0" y="0" maskUnits="userSpaceOnUse" style="mask-type:alpha">
    <path fill="#fff" fill-rule="evenodd" d="M70.912 99.317a6.223 6.223 0 0 0 4.96-.19l20.589-9.907A6.25 6.25 0 0 0 100 83.587V16.413a6.25 6.25 0 0 0-3.539-5.632L75.872.873a6.228 6.228 0 0 0-7.109 1.308L29.356 38.04 12.187 25.01a4.163 4.163 0 0 0-5.321.267L1.83 30.058a4.168 4.168 0 0 0-.001 6.217l14.963 13.692L1.83 63.659a4.168 4.168 0 0 0 0 6.216l5.036 4.782a4.163 4.163 0 0 0 5.321.267L29.356 61.96l39.407 35.86a6.226 6.226 0 0 0 2.149 1.497ZM75.016 27.17 45.078 50l29.938 22.83V27.17Z" clip-rule="evenodd"/>
  </mask>
  <g mask="url(#a)">
    <path fill="#2CA24B" d="M96.461.873 75.872.873a6.228 6.228 0 0 0-7.109 1.308L29.356 38.04 12.187 25.01a4.163 4.163 0 0 0-5.321.267L1.83 30.058a4.168 4.168 0 0 0-.001 6.217l14.963 13.692L1.83 63.659a4.168 4.168 0 0 0 0 6.216l5.036 4.782a4.163 4.163 0 0 0 5.321.267L29.356 61.96l39.407 35.86a6.22 6.22 0 0 0 7.109 1.308l20.589-9.908A6.25 6.25 0 0 0 100 83.587V16.413a6.25 6.25 0 0 0-3.539-5.632Z"/>
    <path fill="#1E7D34" d="M70.912 99.317a6.22 6.22 0 0 0 4.96-.19l20.589-9.907A6.25 6.25 0 0 0 100 83.587V16.413a6.25 6.25 0 0 0-3.539-5.632L75.872.873a6.228 6.228 0 0 0-7.109 1.308L29.356 38.04 12.187 25.01a4.163 4.163 0 0 0-5.321.267L1.83 30.058a4.168 4.168 0 0 0-.001 6.217l14.963 13.692L1.83 63.659a4.168 4.168 0 0 0 0 6.216l5.036 4.782a4.163 4.163 0 0 0 5.321.267L29.356 61.96l39.407 35.86a6.226 6.226 0 0 0 2.149 1.497Z"/>
    <path fill="#3EBF63" d="M75.872.873a6.224 6.224 0 0 0-7.109 1.308L29.356 38.04 12.187 25.01a4.163 4.163 0 0 0-5.321.267L1.83 30.058a4.168 4.168 0 0 0 0 6.217l14.963 13.692L1.83 63.659a4.168 4.168 0 0 0 0 6.216l5.036 4.782a4.163 4.163 0 0 0 5.321.267L29.356 61.96l39.407 35.86a6.228 6.228 0 0 0 7.109 1.307l20.589-9.907A6.25 6.25 0 0 0 100 83.587V16.413a6.25 6.25 0 0 0-3.539-5.632L75.872.873Z"/>
    <g filter="url(#b)">
      <path fill="#fff" fill-opacity=".25" d="M75.016 27.17 45.078 50l29.938 22.83V27.17ZM29.356 38.04 12.187 25.01a4.163 4.163 0 0 0-5.321.267L1.83 30.058a4.168 4.168 0 0 0 0 6.217l14.963 13.692L1.83 63.659a4.168 4.168 0 0 0 0 6.216l5.036 4.782a4.163 4.163 0 0 0 5.321.267L29.356 61.96V38.04Z"/>
    </g>
  </g>
  <defs>
    <filter id="b" width="107.872" height="83.648" x="-3.883" y="10.62" color-interpolation-filters="sRGB" filterUnits="userSpaceOnUse">
      <feFlood flood-opacity="0" result="BackgroundImageFix"/>
      <feColorMatrix in="SourceAlpha" result="hardAlpha" type="matrix" values="0 0 0 0 0 0 0 0 0 0 0 0 0 0 0 0 0 0 127 0"/>
      <feOffset dy="4.168"/>
      <feGaussianBlur stdDeviation="2.084"/>
      <feColorMatrix type="matrix" values="0 0 0 0 0 0 0 0 0 0 0 0 0 0 0 0 0 0 0.25 0"/>
      <feBlend in2="BackgroundImageFix" mode="normal" result="effect1_dropShadow"/>
      <feBlend in="SourceGraphic" in2="effect1_dropShadow" mode="normal" result="shape"/>
    </filter>
  </defs>
</svg>
