<svg role="img" viewBox="0 0 24 24" xmlns="http://www.w3.org/2000/svg">
<title>Axiom</title>
<path d="M23.9616 15.6531L18.8054 6.97021C18.5689 6.57115 17.9863 6.24465 17.5106 6.24465H14.2915C13.5433 6.24465 13.2365 5.73171 13.6097 5.1048L15.375 2.13986C15.5151 1.90455 15.5148 1.61487 15.3743 1.37981C15.2337 1.14476 14.9741 1 14.6933 1H10.2025C9.72681 1 9.14291 1.32577 8.90491 1.72395L0.17865 16.3217C-0.0594434 16.7199 -0.0595348 17.3715 0.178285 17.7698L2.42362 21.5297C2.79777 22.1561 3.41129 22.1569 3.78699 21.5313L5.54143 18.6103C5.91722 17.9847 6.53065 17.9854 6.9048 18.6119L8.49538 21.2754C8.7332 21.6737 9.317 21.9995 9.79273 21.9995H20.1698C20.6455 21.9995 21.2293 21.6737 21.4672 21.2754L23.959 17.1028C24.1968 16.7045 24.198 16.0521 23.9616 15.6531ZM16.9981 15.2352C17.3699 15.8629 17.0619 16.3765 16.3136 16.3765H8.24192C7.49372 16.3765 7.1876 15.864 7.56175 15.2375L11.6007 8.47417C11.9748 7.84772 12.5869 7.84774 12.9611 8.47421L16.9981 15.2352Z"/>
</svg>
