<svg role="img" viewBox="89.8 186.1 127.6 127.6" xmlns="http://www.w3.org/2000/svg">
<title>Exa</title>
<path fill-rule="evenodd" clip-rule="evenodd" d="M89.8 194.65a8.5 8.5 0 0 1 8.5-8.5h108.6a8.5 8.5 0 0 1 8.5 8.5v99.1a8.5 8.5 0 0 1-8.5 8.5h-108.6a8.5 8.5 0 0 1-8.5-8.5v-99.1zm38.2 48.6h51c1.6 0 2.8-1.3 2.8-2.8v-8.5c0-1.6-1.3-2.8-2.8-2.8h-51c-1.6 0-2.8 1.3-2.8 2.8v8.5c0 1.6 1.3 2.8 2.8 2.8zm65.2-45.6h-79.4c-1.6 0-2.8 1.3-2.8 2.8v15.6c0 1.6 1.3 2.8 2.8 2.8h8.5c1.6 0 2.8-1.3 2.8-2.8v-4.3h56.7v4.3c0 1.6 1.3 2.8 2.8 2.8h8.5c1.6 0 2.8-1.3 2.8-2.8v-15.6c0-1.6-1.3-2.8-2.8-2.8zm0 63.8h-8.5c-1.6 0-2.8 1.3-2.8 2.8v4.3h-56.7v-4.3c0-1.6-1.3-2.8-2.8-2.8h-8.5c-1.6 0-2.8 1.3-2.8 2.8v15.6c0 1.6 1.3 2.8 2.8 2.8h79.4c1.6 0 2.8-1.3 2.8-2.8v-15.6c0-1.6-1.3-2.8-2.8-2.8z"/>
</svg>
