<svg role="img" viewBox="-221.5 0 1080 1080" xmlns="http://www.w3.org/2000/svg"><title>Executor</title><path d="M0 0h51.4l35-.1h379.2c12.5 0 20.2 1.3 30.1 9.5 8.9 12.1 8.7 26.2 9.4 40.6l.4 6.8 1 19.3.6 13.5q3.2 60.8 5.6 121.6l.2 4.4.4 11.7.9 15.1q.7 10 .7 20l.1 6.5c-.4 6.2-1.7 9.8-6.1 14.4-6.5 3.2-12.1 2.6-19.2 2.1-7.3-3.6-8.4-4.8-12-12-2.3-9.8-3.4-19-4-29l-2-7-1-11-2-7-2-12a327 327 0 0 0-12-47l-1-4c-2.6-9.9-7.4-19-12.1-28.1l-4.7-9.9a170 170 0 0 0-27.2-36v-2l-3-1v-2l-4-2-4.4-3.6C353.1 36.2 294 32.1 238.7 37.4c-18.1 2.2-34.2 7.3-47.3 20.2-13.5 17.3-13 37.2-13 58.1v21.8l-.1 22.5v33.1c1.2 16.6 9.8 27.2 20.4 39.3l5.8 6.9c16.6 19.3 16.6 19.3 23.9 27.3l8.7 10.2q4.7 5.7 9.6 11.1t9.4 10.9q4.9 6 10.1 11.6 7.4 8.3 14.5 17l5 5.5q7.1 8 14 16.5l5 5.5q4.9 5.3 9.4 10.9 4.9 6 10.1 11.6 7.4 8.3 14.5 17l5 5.5q7.1 8 14 16.5l5 5.5q7.1 8 14 16.5l5 5.5q4.8 5.3 9.4 10.9 4.9 6 10.1 11.6 7.4 8.3 14.5 17l5 5.5c8.7 9.7 15.9 17.9 16 31.4-2.4 11.5-9.2 18.8-17 27.1l-4.5 5.4a297 297 0 0 1-12.8 14.6q-6 6.8-11.7 14l-10 11-4.5 5.5q-7.1 8.4-14.5 16.5l-4.5 5.4a297 297 0 0 1-12.8 14.6q-6 6.8-11.7 14l-10 11-4.5 5.4a297 297 0 0 1-12.8 14.6q-6 6.8-11.7 14l-10 11-4.5 5.5q-7.1 8.4-14.5 16.5l-4.5 5.5q-7.1 8.4-14.5 16.5l-4.5 5.4a297 297 0 0 1-12.8 14.6q-6 6.8-11.7 14l-10 11-9 11-4.7 5a55 55 0 0 0-14.7 40v6.8l.1 7-.1 7c.1 27.2 3.6 51.8 23.4 72.2 35.1 27.2 87.6 24.9 129.8 20.9a188 188 0 0 0 93.2-40.9l3-1 1-3h2l2-4 3.7-4.1c14.7-16.8 24-37.4 32.3-57.9l2.7-6.6c2-5.6 3.2-10.7 4.3-16.4l4-12 2-10 1.5-5.9q2-9 3.5-18.1 1.6-8.6 4-17l.5-5.6c.5-5.4.5-5.4 2.5-11.4l2-11c6.3-30.7 6.3-30.7 13.8-37.5a32 32 0 0 1 19.2-2.5c5.6 3.7 7.9 5.6 10 12q.2 19-1.2 37.9l-.4 6.4-1.7 27.1-2.2 34.5-.3 5.2q-2.8 46.5-4.9 93-1 22-2.3 44.1l-.4 6.7a43 43 0 0 1-12.6 29c-8 6.2-16.1 6.2-25.8 6.2h-88.6l-29.2.1H-.1c-6.4-.3-10.8-1-15.7-5.2-3.3-5.3-3.2-8.8-2.5-15 5.1-7.8 9.6-10.1 18.5-12.5l6.1-1.1 6.6-1.2 19-3.2c15-2.6 30.1-6.3 39.8-19 5.7-8.6 5.3-18.8 5.3-28.7l.1-4.5V430.6l.1-127.6V78.5c-.8-10.5-2.8-20.6-10.5-28.1C50.1 40 31.1 37.6 12.1 34.6a63 63 0 0 1-27.4-9.2c-3.6-6-3.6-9.1-3-16C-13.1 1.5-9.1 0 0 0m185.7 387.4a31 31 0 0 0-8.4 23.7l-.1 6v35.8l-.1 15.6v32.8l-.1 37.8v36.4l-.1 15.5v28.1c.1 12.6 1.1 22 9.9 31.7a46 46 0 0 0 23.9 8.6l4.5.2c47.8-2.2 89.4-43.2 121.3-75l3-2.9q7.9-8 15.2-16.3l4.7-5.1q7-8 13.5-16.3l5.8-7.4 3-3.7 2.7-3.4a22 22 0 0 0 5.3-15.1c-9.7-16.8-24-31.8-37-46l-5.2-5.7q-9-9.8-18.6-19.2l-3-3c-27.8-27.8-67.9-61.7-109-63.3a55 55 0 0 0-31.2 10.2"/></svg>