<svg width="160" height="126" viewBox="0 0 160 126" xmlns="http://www.w3.org/2000/svg">
<path d="M0 0 C7.99 7.99 12.33 16.49 12.75 27.75 C12.52 36.88 8.84 43.79 4.27 51.5 C3.31 53.31 3.31 53.31 3.31 55.31 C7.53 54.71 11.12 54.08 14 50.75 C15.86 48.22 17.29 45.52 18.75 42.75 C21.62 37.42 24.75 34.54 30.19 31.94 C35.48 30.88 40.07 31.26 44.69 34.19 C46.86 35.95 48.05 36.93 49.31 39.31 C48.94 42 48.94 42 48.31 44.31 C46.5 45 46.5 45 44.31 45.31 C43.29 44.33 42.29 43.33 41.31 42.31 C38.72 41.45 37.03 41.14 34.37 41.79 C31.07 44.24 30.24 47.78 28.88 51.56 C26.35 58.5 23.85 64.08 17.44 68.12 C13.96 69.45 11 69.94 7.31 70.31 C10.99 72.15 14.31 72.1 18.31 71.31 C20.88 70.14 23.31 68.73 25.75 67.31 C31.59 63.97 36.45 61.45 43.31 63.31 C47.3 65.1 51.37 67.23 53.31 71.31 C53.51 73.79 53.51 73.79 53.44 76.5 C53.42 77.4 53.4 78.3 53.38 79.23 C53.36 79.92 53.34 80.6 53.31 81.31 C52.49 81.48 52.49 81.48 48.31 82.31 C47.84 81.34 47.36 80.37 46.88 79.38 C45.31 76.31 45.31 76.31 44.31 75.31 C40.47 74.84 38.8 74.98 35.57 77.21 C34.7 78.02 33.84 78.85 33 79.69 C32.56 80.1 32.12 80.51 31.66 80.94 C29.87 82.64 28.43 84.09 27.31 86.31 C21.33 89.58 13.49 91.49 6.85 89.62 C2.44 87.75 -0.99 85.37 -4.69 82.31 C-4.29 84.71 -3.87 87.11 -3.44 89.5 C-3.38 89.84 -3.38 89.84 -3.11 91.54 C-2.27 96.06 -1.12 99.04 2.31 102.31 C6.17 103.72 9.98 103.89 13.75 102.25 C15.31 100.31 15.31 100.31 16.31 97.19 C17.31 94.31 17.31 94.31 19.25 93.25 C21.31 93.31 21.31 93.31 22.95 94.55 C24.7 96.81 24.59 97.82 24.25 100.62 C23.28 106.89 20.83 110.35 15.81 114.12 C10.74 117.69 5.35 117.86 -0.69 117.31 C-7.33 115.79 -13.19 110.98 -16.98 105.42 C-20.3 98.78 -21.18 91.26 -22.39 84 C-22.73 82.08 -23.17 80.19 -23.69 78.31 C-25.62 79.05 -25.62 79.05 -27.69 80.31 C-28.41 82.23 -28.41 82.23 -28.74 84.57 C-28.88 85.42 -29.02 86.27 -29.16 87.14 C-29.22 87.59 -29.22 87.59 -29.56 89.88 C-30.89 97.52 -32.29 103.47 -37.69 109.31 C-38.09 109.82 -38.49 110.32 -38.9 110.84 C-42.61 115.15 -47.41 116.83 -52.89 117.63 C-58.78 117.94 -63.77 116.61 -68.69 113.31 C-72.14 109.98 -74.76 106.38 -75.75 101.62 C-75.68 97.91 -74.9 96.24 -72.69 93.31 C-70.82 93.56 -70.82 93.56 -68.69 94.31 C-67.49 96.12 -67.49 96.12 -66.56 98.31 C-64.87 102.22 -64.87 102.22 -62.69 103.31 C-58.67 103.69 -56.56 103.75 -52.94 101.94 C-49.67 98.13 -48.81 94.13 -47.69 89.31 C-47.48 88.44 -47.27 87.56 -47.06 86.66 C-46.58 84.55 -46.12 82.43 -45.69 80.31 C-45.98 80.71 -46.27 81.11 -46.57 81.52 C-50.37 86.43 -54.25 89.01 -60.44 90.19 C-67.07 90.81 -73.91 88.43 -79.27 84.56 C-81.02 83.02 -82.55 81.33 -84.12 79.62 C-86.46 77.22 -88.11 75.81 -91.44 75.19 C-94.69 75.31 -94.69 75.31 -96.5 76.5 C-97.73 78.38 -98.77 80.26 -99.69 82.31 C-104.56 81.44 -104.56 81.44 -105.69 80.31 C-106.21 75.8 -105.52 73.25 -102.9 69.7 C-100.13 66.54 -96.91 63.61 -92.66 63.04 C-84.48 62.7 -78.72 65.46 -72.12 70.12 C-68.44 71.92 -64.72 71.87 -60.69 71.31 C-58.41 70.29 -58.41 70.29 -56.69 69.31 C-56.94 69.33 -56.94 69.33 -58.23 69.42 C-63.92 69.64 -67.65 68.82 -72.18 65.08 C-76.57 60.66 -78.48 55.36 -80.42 49.56 C-81.62 46.18 -82.32 44.61 -85.2 42.32 C-87.69 41.31 -87.69 41.31 -90.38 42 C-92.69 43.31 -92.69 43.31 -94.69 45.31 C-98.22 44.78 -98.22 44.78 -99.69 43.31 C-100.19 41.12 -100.19 41.12 -99.69 38.31 C-96.64 34.33 -93.15 32.02 -88.19 31.25 C-82.42 30.98 -78.67 32.77 -74.19 36.25 C-71.26 39.39 -69.28 43.27 -67.27 47.03 C-65.5 50.27 -63.91 52.46 -60.69 54.31 C-57.44 54.5 -57.44 54.5 -54.69 54.31 C-55 50.85 -55.92 48.88 -58.06 46.25 C-63.26 39.29 -64.42 30.41 -63.25 21.96 C-61.04 11.51 -55.85 3.37 -46.82 -2.58 C-30.49 -11.32 -15.36 -9.64 0 0 Z M-44.69 77.31 C-43.69 79.31 -43.69 79.31 -43.69 79.31 Z M-6.69 78.31 C-5.69 80.31 -5.69 80.31 -5.69 80.31 Z " fill="#239AC3" transform="translate(106.6875,8.6875)"/>
<path d="M0 0 C2.45 0.54 3.44 1 5.44 2.62 C6.85 5.97 6.65 8.59 5.44 12 C3.26 14.41 2.02 14.92 -1.19 15.38 C-3.56 15 -3.56 15 -4.88 13.5 C-5.1 13.01 -5.33 12.51 -5.56 12 C-4.57 11.34 -3.58 10.68 -2.56 10 C-2.73 9.17 -2.73 9.17 -3.56 5 C-4.88 4.67 -6.2 4.34 -7.56 4 C-5.26 0.96 -3.81 -0.38 0 0 Z " fill="#F0F8FB" transform="translate(98.5625,49)"/>
<path d="M0 0 C2.81 1 2.81 1 4.19 3.06 C4.39 3.7 4.6 4.34 4.81 5 C3.16 5.33 1.51 5.66 -0.19 6 C0.56 10.75 0.56 10.75 2.81 13 C0.81 15 0.81 15 -1.56 15.38 C-4.19 15 -4.19 15 -6.5 13.44 C-8.44 10.64 -8.85 9.04 -8.64 5.69 C-8.19 4 -8.19 4 -6.06 1.5 C-3.19 0 -3.19 0 0 0 Z " fill="#F6FAFC" transform="translate(66.1875,49)"/>
<path d="M0 0 C1.94 0.69 1.94 0.69 4 2 C4.75 4.62 4.75 4.62 5 7 C3.12 7.12 3.12 7.12 1 7 C0.34 6.34 -0.32 5.68 -1 5 C-0.62 2.38 -0.62 2.38 0 0 Z " fill="#E7F4F8" transform="translate(91,105)"/>
<path d="M0 0 C0.4 0.01 0.4 0.01 2.44 0.06 C2.77 1.38 3.1 2.7 3.44 4.06 C0.73 5.42 -1.57 5.13 -4.56 5.06 C-3.44 0.08 -3.44 0.08 0 0 Z " fill="#F2F9FB" transform="translate(48.5625,89.9375)"/>
<path d="M0 0 C2.36 0.18 4.66 0.62 7 1 C7 2.32 7 3.64 7 5 C5.02 5 3.04 5 1 5 C0.34 3.68 -0.32 2.36 -1 1 C-0.67 0.67 -0.34 0.34 0 0 Z " fill="#F1F8FB" transform="translate(112,90)"/>
<path d="M0 0 C0.4 0.01 0.4 0.01 2.44 0.06 C2.48 1.4 2.48 2.73 2.44 4.06 C1.44 5.06 1.44 5.06 -1.62 5.12 C-2.11 5.11 -2.11 5.11 -4.56 5.06 C-3.44 0.08 -3.44 0.08 0 0 Z " fill="#E8F4F9" transform="translate(127.5625,88.9375)"/>
<path d="M0 0 C2.12 0.38 2.12 0.38 4 1 C3.67 2.32 3.34 3.64 3 5 C1.35 5.33 -0.3 5.66 -2 6 C-2.12 4.12 -2.12 4.12 -2 2 C-1.34 1.34 -0.68 0.68 0 0 Z " fill="#E7F4F8" transform="translate(62,114)"/>
<path d="M0 0 C0.99 0.33 1.98 0.66 3 1 C2.67 2.65 2.34 4.3 2 6 C0.68 6.33 -0.64 6.66 -2 7 C-2.69 5.19 -2.69 5.19 -3 3 C-1.56 1.25 -1.56 1.25 0 0 Z " fill="#F0F8FB" transform="translate(69,105)"/>
<path d="M0 0 C1.65 0.33 3.3 0.66 5 1 C5.33 2.32 5.66 3.64 6 5 C3 6 3 6 0.81 5.06 C0.21 4.71 -0.38 4.36 -1 4 C-0.67 2.68 -0.34 1.36 0 0 Z " fill="#F0F8FB" transform="translate(34,89)"/>
<path d="M0 0 C1.32 0 2.64 0 4 0 C4.33 1.98 4.66 3.96 5 6 C3.68 6.33 2.36 6.66 1 7 C0.67 4.69 0.34 2.38 0 0 Z " fill="#F1F8FB" transform="translate(88,95)"/>
<path d="M0 0 C0.99 0 1.98 0 3 0 C3 1.98 3 3.96 3 6 C1.68 6.33 0.36 6.66 -1 7 C-1.62 4.62 -1.62 4.62 -2 2 C-1.34 1.34 -0.68 0.68 0 0 Z " fill="#EAF5F9" transform="translate(71,95)"/>
<path d="M0 0 C2.38 -0.12 2.38 -0.12 5 0 C7 2 7 2 7 5 C4.62 5.12 4.62 5.12 2 5 C1.34 4.34 0.68 3.68 0 3 C0 2.01 0 1.02 0 0 Z " fill="#EDF7FA" transform="translate(96,115)"/>
<path d="M0 0 C2.31 0.33 4.62 0.66 7 1 C6.67 1.66 6.34 2.32 6 3 C5.01 3 4.02 3 3 3 C3 2.34 3 1.68 3 1 C2.01 0.67 1.02 0.34 0 0 Z " fill="#6DBCD7" transform="translate(124,94)"/>
</svg>
