<svg width="160" height="126" viewBox="0 0 160 126" fill="none" xmlns="http://www.w3.org/2000/svg">
  <g fill="#229AC3">
    <ellipse cx="80" cy="43" rx="39" ry="38"/>
    <path d="M44 55C31 58 23 67 20 80C18 88 22 95 30 97C39 99 46 94 48 85C49 79 54 75 61 74C68 73 73 67 72 60C71 53 64 49 57 51L44 55Z"/>
    <path d="M116 55C129 58 137 67 140 80C142 88 138 95 130 97C121 99 114 94 112 85C111 79 106 75 99 74C92 73 87 67 88 60C89 53 96 49 103 51L116 55Z"/>
    <path d="M60 69C48 76 42 87 43 101C44 110 51 116 60 115C69 114 74 107 73 98C72 91 75 85 82 80C88 75 89 67 85 62C80 56 70 63 60 69Z"/>
    <path d="M100 69C112 76 118 87 117 101C116 110 109 116 100 115C91 114 86 107 87 98C88 91 85 85 78 80C72 75 71 67 75 62C80 56 90 63 100 69Z"/>
    <path d="M72 74C60 83 58 96 66 108C71 116 80 118 87 113C94 108 94 99 89 92C85 86 86 81 91 76C96 71 96 64 91 59C85 54 79 69 72 74Z"/>
    <path d="M88 74C100 83 102 96 94 108C89 116 80 118 73 113C66 108 66 99 71 92C75 86 74 81 69 76C64 71 64 64 69 59C75 54 81 69 88 74Z"/>
  </g>
  <g fill="#fff">
    <circle cx="65" cy="39" r="8"/>
    <circle cx="95" cy="39" r="8"/>
    <ellipse cx="54" cy="86" rx="4.5" ry="5" transform="rotate(27 54 86)"/>
    <ellipse cx="61" cy="99" rx="4.5" ry="5" transform="rotate(8 61 99)"/>
    <ellipse cx="75" cy="96" rx="4" ry="4.8" transform="rotate(-20 75 96)"/>
    <ellipse cx="106" cy="86" rx="4.5" ry="5" transform="rotate(-27 106 86)"/>
    <ellipse cx="99" cy="99" rx="4.5" ry="5" transform="rotate(-8 99 99)"/>
    <ellipse cx="85" cy="96" rx="4" ry="4.8" transform="rotate(20 85 96)"/>
    <ellipse cx="69" cy="107" rx="3.6" ry="4.4" transform="rotate(-28 69 107)"/>
    <ellipse cx="91" cy="107" rx="3.6" ry="4.4" transform="rotate(28 91 107)"/>
  </g>
</svg>
