<svg width="26" height="25" viewBox="0 0 26 25" fill="none" xmlns="http://www.w3.org/2000/svg">
<path d="M24.664 0H12.2603C12.2603 2.99443 14.7697 5.43176 17.8527 5.43176H20.147V7.5557C20.147 10.5501 22.6565 12.9875 25.7395 12.9875V1.04457C25.7395 0.45265 25.2735 0 24.664 0Z" fill="#2684FF"/>
<path d="M18.5339 5.98877H6.13013C6.13013 8.9832 8.63956 11.4205 11.7226 11.4205H14.0169V13.5793C14.0169 16.5737 16.5264 19.0111 19.6094 19.0111V7.0333C19.6094 6.47623 19.1433 5.98877 18.5339 5.98877Z" fill="url(#paint0_linear_92_39)"/>
<path d="M12.4038 12.0125H0C0 15.0069 2.50943 17.4442 5.59245 17.4442H7.88679V19.5682C7.88679 22.5626 10.3962 24.9999 13.4792 24.9999V13.057C13.4792 12.4651 12.9774 12.0125 12.4038 12.0125Z" fill="url(#paint1_linear_92_39)"/>
<defs>
<linearGradient id="paint0_linear_92_39" x1="19.3455" y1="6.01882" x2="14.2302" y2="11.45" gradientUnits="userSpaceOnUse">
<stop offset="0.176" stop-color="#0052CC"/>
<stop offset="1" stop-color="#2684FF"/>
</linearGradient>
<linearGradient id="paint1_linear_92_39" x1="13.5601" y1="12.0525" x2="7.63562" y2="17.9874" gradientUnits="userSpaceOnUse">
<stop offset="0.176" stop-color="#0052CC"/>
<stop offset="1" stop-color="#2684FF"/>
</linearGradient>
</defs>
</svg>
